<svg width="1084" height="120" viewBox="0 0 1084 120" fill="none" xmlns="http://www.w3.org/2000/svg">
<path d="M38.84 97.048C33.5493 97.048 28.472 96.664 23.608 95.896C18.744 95.128 14.3067 94.0613 10.296 92.696C6.37067 91.2453 2.95733 89.6667 0.0559998 87.96L11.704 65.688C15.032 67.5653 18.36 69.144 21.688 70.424C25.1013 71.6187 28.472 72.5147 31.8 73.112C35.2133 73.7093 38.584 74.008 41.912 74.008C44.5573 74.008 46.7333 73.7947 48.44 73.368C50.232 72.9413 51.5547 72.344 52.408 71.576C53.3467 70.7227 53.816 69.784 53.816 68.76C53.816 67.3947 53.048 66.2853 51.512 65.432C49.976 64.5787 47.928 63.8107 45.368 63.128C42.8933 62.4453 40.12 61.7627 37.048 61.08C34.0613 60.312 31.032 59.3733 27.96 58.264C24.888 57.0693 22.072 55.576 19.512 53.784C17.0373 51.992 15.032 49.7307 13.496 47C11.96 44.2693 11.192 40.9413 11.192 37.016C11.192 30.1893 12.984 24.2587 16.568 19.224C20.2373 14.1893 25.4427 10.3067 32.184 7.576C39.0107 4.76 47.1173 3.352 56.504 3.352C63.16 3.352 69.3467 4.03466 75.064 5.39999C80.8667 6.67999 85.8587 8.55733 90.04 11.032L79.16 33.048C75.576 30.8293 71.6507 29.1653 67.384 28.056C63.2027 26.9467 58.936 26.392 54.584 26.392C51.6827 26.392 49.2507 26.6907 47.288 27.288C45.3253 27.8 43.832 28.5253 42.808 29.464C41.8693 30.4027 41.4 31.384 41.4 32.408C41.4 33.7733 42.168 34.9253 43.704 35.864C45.24 36.7173 47.288 37.4853 49.848 38.168C52.408 38.7653 55.1813 39.448 58.168 40.216C61.24 40.8987 64.2693 41.7947 67.256 42.904C70.328 43.928 73.144 45.336 75.704 47.128C78.264 48.8347 80.312 51.0533 81.848 53.784C83.384 56.4293 84.152 59.7147 84.152 63.64C84.152 70.296 82.3173 76.1413 78.648 81.176C74.9787 86.1253 69.7307 90.008 62.904 92.824C56.1627 95.64 48.1413 97.048 38.84 97.048ZM120.021 96.28C114.048 96.28 108.97 95.1707 104.789 92.952C100.608 90.7333 97.6637 87.4907 95.957 83.224C94.2503 78.872 93.9943 73.6667 95.189 67.608L106.837 9.24H135.765L124.117 67.48C123.69 69.8693 123.946 71.6187 124.885 72.728C125.824 73.8373 127.274 74.392 129.237 74.392C130.432 74.392 131.498 74.264 132.437 74.008C133.461 73.6667 134.528 73.24 135.637 72.728L138.965 92.184C136.32 93.6347 133.333 94.6587 130.005 95.256C126.762 95.9387 123.434 96.28 120.021 96.28ZM89.045 49.944L93.269 28.824H146.133L141.909 49.944H89.045ZM175.44 96.28C169.808 96.28 164.901 95.0853 160.72 92.696C156.624 90.2213 153.68 86.5947 151.888 81.816C150.181 76.952 150.053 70.8933 151.504 63.64L159.184 24.984H188.112L181.072 60.184C180.304 64.024 180.475 66.968 181.584 69.016C182.693 70.9787 184.699 71.96 187.6 71.96C190.843 71.96 193.531 70.8933 195.664 68.76C197.883 66.5413 199.419 63.1707 200.272 58.648L207.056 24.984H235.984L222.032 95H194.768L198.736 75.416L202.064 80.792C198.736 86.168 194.64 90.0933 189.776 92.568C184.997 95.0427 180.219 96.28 175.44 96.28ZM267.375 96.28C262.767 96.28 258.244 95.0427 253.807 92.568C249.37 90.008 245.7 86.3387 242.799 81.56C239.983 76.696 238.575 70.808 238.575 63.896C238.575 58.0933 239.556 52.76 241.519 47.896C243.482 43.032 246.17 38.808 249.583 35.224C253.082 31.5547 257.05 28.7387 261.487 26.776C266.01 24.728 270.788 23.704 275.823 23.704C280.516 23.704 284.655 24.5147 288.239 26.136C291.908 27.672 294.767 30.3173 296.815 34.072C298.948 37.7413 300.015 42.7333 300.015 49.048C300.015 55.0213 299.332 60.824 297.967 66.456C296.602 72.088 294.554 77.1653 291.823 81.688C289.092 86.1253 285.679 89.6667 281.583 92.312C277.487 94.9573 272.751 96.28 267.375 96.28ZM278.255 73.496C280.815 73.496 283.034 72.856 284.911 71.576C286.788 70.2107 288.239 68.3333 289.263 65.944C290.372 63.5547 290.927 60.7387 290.927 57.496C290.927 54.2533 289.988 51.608 288.111 49.56C286.319 47.512 283.802 46.488 280.559 46.488C278.084 46.488 275.866 47.1707 273.903 48.536C272.026 49.816 270.532 51.6507 269.423 54.04C268.399 56.4293 267.887 59.2453 267.887 62.488C267.887 65.7307 268.783 68.376 270.575 70.424C272.452 72.472 275.012 73.496 278.255 73.496ZM284.911 95L286.831 85.528L291.567 59.928L295.279 34.584L302.191 0.0239944H331.119L312.175 95H284.911ZM366.713 96.28C359.033 96.28 352.292 94.9573 346.489 92.312C340.772 89.6667 336.292 85.912 333.049 81.048C329.806 76.184 328.185 70.4667 328.185 63.896C328.185 56.216 329.977 49.3467 333.561 43.288C337.145 37.2293 342.18 32.4507 348.665 28.952C355.236 25.4533 362.873 23.704 371.577 23.704C379.086 23.704 385.486 25.0267 390.777 27.672C396.068 30.3173 400.121 33.944 402.937 38.552C405.753 43.16 407.161 48.4933 407.161 54.552C407.161 56.6853 406.99 58.776 406.649 60.824C406.393 62.872 406.052 64.8347 405.625 66.712H351.225L353.913 52.76H392.313L380.281 56.472C380.964 53.7413 380.921 51.4373 380.153 49.56C379.47 47.5973 378.276 46.104 376.569 45.08C374.862 43.9707 372.772 43.416 370.297 43.416C366.798 43.416 364.025 44.3547 361.977 46.232C359.929 48.1093 358.436 50.5413 357.497 53.528C356.644 56.5147 356.217 59.6293 356.217 62.872C356.217 67.224 357.369 70.3387 359.673 72.216C362.062 74.008 365.518 74.904 370.041 74.904C372.686 74.904 375.332 74.52 377.977 73.752C380.622 72.8987 383.054 71.6613 385.273 70.04L397.305 87.576C392.526 90.8187 387.534 93.08 382.329 94.36C377.209 95.64 372.004 96.28 366.713 96.28ZM468.785 23.704C474.588 23.704 479.537 24.9413 483.633 27.416C487.814 29.8053 490.758 33.432 492.465 38.296C494.257 43.0747 494.428 49.0907 492.977 56.344L485.297 95H456.369L463.409 59.8C464.177 55.96 464.006 53.0587 462.897 51.096C461.788 49.048 459.697 48.024 456.625 48.024C453.382 48.024 450.652 49.1333 448.433 51.352C446.214 53.4853 444.636 56.8133 443.697 61.336L436.913 95H407.985L421.937 24.984H449.201L445.233 44.568L441.905 39.192C445.233 33.816 449.329 29.8907 454.193 27.416C459.142 24.9413 464.006 23.704 468.785 23.704ZM531.396 96.28C525.423 96.28 520.345 95.1707 516.164 92.952C511.983 90.7333 509.039 87.4907 507.332 83.224C505.625 78.872 505.369 73.6667 506.564 67.608L518.212 9.24H547.14L535.492 67.48C535.065 69.8693 535.321 71.6187 536.26 72.728C537.199 73.8373 538.649 74.392 540.612 74.392C541.807 74.392 542.873 74.264 543.812 74.008C544.836 73.6667 545.903 73.24 547.012 72.728L550.34 92.184C547.695 93.6347 544.708 94.6587 541.38 95.256C538.137 95.9387 534.809 96.28 531.396 96.28ZM500.42 49.944L504.644 28.824H557.508L553.284 49.944H500.42Z" fill="url(#paint0_linear_4705_2)"/>
<path d="M596.543 38.68H636.479L632.127 60.44H592.191L596.543 38.68ZM591.807 72.216H636.735L632.127 95H557.631L575.551 5.39999H648.383L643.775 28.184H600.639L591.807 72.216ZM672.044 96.28C665.815 96.28 659.884 95.6827 654.252 94.488C648.705 93.208 644.396 91.672 641.324 89.88L651.308 70.168C654.807 72.3013 658.732 73.9227 663.084 75.032C667.521 76.056 671.703 76.568 675.628 76.568C678.871 76.568 681.089 76.2693 682.284 75.672C683.564 74.9893 684.204 74.1787 684.204 73.24C684.204 72.216 683.351 71.4907 681.644 71.064C679.937 70.552 677.719 70.1253 674.988 69.784C672.343 69.4427 669.527 68.9307 666.54 68.248C663.553 67.5653 660.695 66.584 657.964 65.304C655.319 63.9387 653.143 62.0613 651.436 59.672C649.729 57.2827 648.876 54.1253 648.876 50.2C648.876 44.1413 650.625 39.192 654.124 35.352C657.708 31.4267 662.487 28.5253 668.46 26.648C674.433 24.6853 681.047 23.704 688.3 23.704C693.42 23.704 698.327 24.1733 703.02 25.112C707.799 25.9653 712.023 27.2453 715.692 28.952L705.708 48.664C702.039 46.5307 698.369 45.1227 694.7 44.44C691.116 43.7573 687.831 43.416 684.844 43.416C681.516 43.416 679.212 43.8 677.932 44.568C676.652 45.2507 676.012 46.0187 676.012 46.872C676.012 47.896 676.865 48.664 678.572 49.176C680.279 49.688 682.455 50.1573 685.1 50.584C687.745 50.9253 690.561 51.4373 693.548 52.12C696.62 52.7173 699.479 53.6987 702.124 55.064C704.769 56.344 706.945 58.1787 708.652 60.568C710.359 62.9573 711.212 66.1147 711.212 70.04C711.212 75.8427 709.42 80.7067 705.836 84.632C702.337 88.5573 697.601 91.5013 691.628 93.464C685.74 95.3413 679.212 96.28 672.044 96.28ZM765.667 96.28C760.291 96.28 755.555 95.1707 751.459 92.952C747.448 90.7333 744.547 86.9787 742.755 81.688C741.048 76.3973 740.92 69.1867 742.371 60.056C743.651 52.4613 745.699 45.976 748.515 40.6C751.331 35.1387 754.872 30.9573 759.139 28.056C763.491 25.1547 768.483 23.704 774.115 23.704C778.808 23.704 783.331 24.984 787.683 27.544C792.12 30.0187 795.747 33.6453 798.563 38.424C801.464 43.2027 802.915 49.0907 802.915 56.088C802.915 61.8053 801.934 67.1387 799.971 72.088C798.008 76.952 795.278 81.2187 791.779 84.888C788.366 88.472 784.398 91.288 779.875 93.336C775.438 95.2987 770.702 96.28 765.667 96.28ZM710.243 119.832L729.187 24.984H756.451L754.531 34.456L749.795 60.056L746.083 85.4L739.171 119.832H710.243ZM760.931 73.496C763.491 73.496 765.71 72.856 767.587 71.576C769.464 70.2107 770.915 68.3333 771.939 65.944C773.048 63.5547 773.603 60.7387 773.603 57.496C773.603 54.2533 772.664 51.608 770.787 49.56C768.995 47.512 766.478 46.488 763.235 46.488C760.76 46.488 758.542 47.1707 756.579 48.536C754.702 49.816 753.208 51.6507 752.099 54.04C751.075 56.4293 750.563 59.2453 750.563 62.488C750.563 65.7307 751.459 68.376 753.251 70.424C755.128 72.472 757.688 73.496 760.931 73.496ZM845.948 96.28C838.268 96.28 831.569 94.9573 825.852 92.312C820.135 89.5813 815.697 85.784 812.54 80.92C809.468 76.056 807.932 70.3813 807.932 63.896C807.932 56.216 809.809 49.3467 813.564 43.288C817.319 37.2293 822.481 32.4507 829.052 28.952C835.623 25.4533 843.132 23.704 851.58 23.704C859.345 23.704 866.044 25.0693 871.676 27.8C877.393 30.4453 881.788 34.2 884.86 39.064C888.017 43.8427 889.596 49.5173 889.596 56.088C889.596 63.768 887.719 70.6373 883.964 76.696C880.209 82.7547 875.047 87.5333 868.476 91.032C861.991 94.5307 854.481 96.28 845.948 96.28ZM847.612 73.752C850.172 73.752 852.391 73.112 854.268 71.832C856.145 70.4667 857.596 68.5893 858.62 66.2C859.729 63.7253 860.284 60.824 860.284 57.496C860.284 54.5093 859.388 51.9067 857.596 49.688C855.804 47.384 853.244 46.232 849.916 46.232C847.441 46.232 845.223 46.9147 843.26 48.28C841.383 49.56 839.889 51.4373 838.78 53.912C837.756 56.3013 837.244 59.16 837.244 62.488C837.244 65.816 838.14 68.5467 839.932 70.68C841.809 72.728 844.369 73.752 847.612 73.752ZM891.36 95L905.312 24.984H932.576L928.608 44.824L925.92 39.192C928.821 33.6453 932.832 29.6773 937.952 27.288C943.157 24.8987 949.088 23.704 955.744 23.704L950.624 49.304C949.429 49.1333 948.32 49.0053 947.296 48.92C946.357 48.8347 945.376 48.792 944.352 48.792C939.573 48.792 935.691 49.8587 932.704 51.992C929.803 54.1253 927.84 57.6667 926.816 62.616L920.288 95H891.36ZM985.146 96.28C979.173 96.28 974.095 95.1707 969.914 92.952C965.733 90.7333 962.789 87.4907 961.082 83.224C959.375 78.872 959.119 73.6667 960.314 67.608L971.962 9.24H1000.89L989.242 67.48C988.815 69.8693 989.071 71.6187 990.01 72.728C990.949 73.8373 992.399 74.392 994.362 74.392C995.557 74.392 996.623 74.264 997.562 74.008C998.586 73.6667 999.653 73.24 1000.76 72.728L1004.09 92.184C1001.44 93.6347 998.458 94.6587 995.13 95.256C991.887 95.9387 988.559 96.28 985.146 96.28ZM954.17 49.944L958.394 28.824H1011.26L1007.03 49.944H954.17ZM1039.67 96.28C1033.44 96.28 1027.51 95.6827 1021.88 94.488C1016.33 93.208 1012.02 91.672 1008.95 89.88L1018.93 70.168C1022.43 72.3013 1026.36 73.9227 1030.71 75.032C1035.15 76.056 1039.33 76.568 1043.25 76.568C1046.5 76.568 1048.71 76.2693 1049.91 75.672C1051.19 74.9893 1051.83 74.1787 1051.83 73.24C1051.83 72.216 1050.98 71.4907 1049.27 71.064C1047.56 70.552 1045.34 70.1253 1042.61 69.784C1039.97 69.4427 1037.15 68.9307 1034.17 68.248C1031.18 67.5653 1028.32 66.584 1025.59 65.304C1022.94 63.9387 1020.77 62.0613 1019.06 59.672C1017.35 57.2827 1016.5 54.1253 1016.5 50.2C1016.5 44.1413 1018.25 39.192 1021.75 35.352C1025.33 31.4267 1030.11 28.5253 1036.09 26.648C1042.06 24.6853 1048.67 23.704 1055.93 23.704C1061.05 23.704 1065.95 24.1733 1070.65 25.112C1075.42 25.9653 1079.65 27.2453 1083.32 28.952L1073.33 48.664C1069.66 46.5307 1065.99 45.1227 1062.33 44.44C1058.74 43.7573 1055.46 43.416 1052.47 43.416C1049.14 43.416 1046.84 43.8 1045.56 44.568C1044.28 45.2507 1043.64 46.0187 1043.64 46.872C1043.64 47.896 1044.49 48.664 1046.2 49.176C1047.9 49.688 1050.08 50.1573 1052.73 50.584C1055.37 50.9253 1058.19 51.4373 1061.17 52.12C1064.25 52.7173 1067.1 53.6987 1069.75 55.064C1072.39 56.344 1074.57 58.1787 1076.28 60.568C1077.98 62.9573 1078.84 66.1147 1078.84 70.04C1078.84 75.8427 1077.05 80.7067 1073.46 84.632C1069.96 88.5573 1065.23 91.5013 1059.25 93.464C1053.37 95.3413 1046.84 96.28 1039.67 96.28Z" fill="#EDEDED"/>
<defs>
<linearGradient id="paint0_linear_4705_2" x1="3" y1="49" x2="1084" y2="49" gradientUnits="userSpaceOnUse">
<stop stop-color="#FFAE00"/>
<stop offset="0.515" stop-color="#FFDE00"/>
</linearGradient>
</defs>
</svg>
