<svg width="179" height="95" viewBox="0 0 179 95" fill="none" xmlns="http://www.w3.org/2000/svg">
<path d="M38.84 94.048C33.5493 94.048 28.472 93.664 23.608 92.896C18.744 92.128 14.3067 91.0613 10.296 89.696C6.37067 88.2453 2.95733 86.6667 0.0559998 84.96L11.704 62.688C15.032 64.5653 18.36 66.144 21.688 67.424C25.1013 68.6187 28.472 69.5147 31.8 70.112C35.2133 70.7093 38.584 71.008 41.912 71.008C44.5573 71.008 46.7333 70.7947 48.44 70.368C50.232 69.9413 51.5547 69.344 52.408 68.576C53.3467 67.7227 53.816 66.784 53.816 65.76C53.816 64.3947 53.048 63.2853 51.512 62.432C49.976 61.5787 47.928 60.8107 45.368 60.128C42.8933 59.4453 40.12 58.7627 37.048 58.08C34.0613 57.312 31.032 56.3733 27.96 55.264C24.888 54.0693 22.072 52.576 19.512 50.784C17.0373 48.992 15.032 46.7307 13.496 44C11.96 41.2693 11.192 37.9413 11.192 34.016C11.192 27.1893 12.984 21.2587 16.568 16.224C20.2373 11.1893 25.4427 7.30666 32.184 4.576C39.0107 1.76 47.1173 0.351997 56.504 0.351997C63.16 0.351997 69.3467 1.03466 75.064 2.39999C80.8667 3.67999 85.8587 5.55733 90.04 8.032L79.16 30.048C75.576 27.8293 71.6507 26.1653 67.384 25.056C63.2027 23.9467 58.936 23.392 54.584 23.392C51.6827 23.392 49.2507 23.6907 47.288 24.288C45.3253 24.8 43.832 25.5253 42.808 26.464C41.8693 27.4027 41.4 28.384 41.4 29.408C41.4 30.7733 42.168 31.9253 43.704 32.864C45.24 33.7173 47.288 34.4853 49.848 35.168C52.408 35.7653 55.1813 36.448 58.168 37.216C61.24 37.8987 64.2693 38.7947 67.256 39.904C70.328 40.928 73.144 42.336 75.704 44.128C78.264 45.8347 80.312 48.0533 81.848 50.784C83.384 53.4293 84.152 56.7147 84.152 60.64C84.152 67.296 82.3173 73.1413 78.648 78.176C74.9787 83.1253 69.7307 87.008 62.904 89.824C56.1627 92.64 48.1413 94.048 38.84 94.048Z" fill="url(#paint0_linear_4705_2)"/>
<path d="M126.293 35.68H166.229L161.877 57.44H121.941L126.293 35.68ZM121.557 69.216H166.485L161.877 92H87.381L105.301 2.39999H178.133L173.525 25.184H130.389L121.557 69.216Z" fill="#EDEDED"/>
<defs>
<linearGradient id="paint0_linear_4705_2" x1="3" y1="46" x2="174" y2="46" gradientUnits="userSpaceOnUse">
<stop stop-color="#FFAE00"/>
<stop offset="0.515" stop-color="#FFDE00"/>
</linearGradient>
</defs>
</svg>
